# Blender v2.77 (sub 0) OBJ File: ''
# www.blender.org
mtllib cube.mtl
o Cube.001_Cube.003
v -2.312465 0.105005 -3.697543
v -2.412465 0.105005 -3.797543
v -2.312465 0.005005 -3.797543
v -2.362400 0.105005 -3.710903
v -2.312465 0.055070 -3.710903
v -2.360286 0.057184 -3.723880
v -2.399106 0.055070 -3.797543
v -2.399106 0.105005 -3.747609
v -2.386128 0.057184 -3.749722
v -2.312465 0.018364 -3.747609
v -2.362400 0.018364 -3.797543
v -2.360286 0.031341 -3.749722
v -2.312465 1.905005 -3.697543
v -2.312465 2.005005 -3.797543
v -2.412465 1.905005 -3.797543
v -2.312465 1.954939 -3.710903
v -2.362400 1.905005 -3.710903
v -2.360286 1.952826 -3.723880
v -2.362400 1.991645 -3.797543
v -2.312465 1.991645 -3.747609
v -2.360286 1.978668 -3.749722
v -2.399106 1.905005 -3.747609
v -2.399106 1.954939 -3.797543
v -2.386128 1.952826 -3.749722
v -2.312465 0.105005 -5.697543
v -2.312465 0.005005 -5.597543
v -2.412465 0.105005 -5.597543
v -2.312465 0.055070 -5.684184
v -2.362400 0.105005 -5.684184
v -2.360286 0.057184 -5.671206
v -2.362400 0.018364 -5.597543
v -2.312465 0.018364 -5.647478
v -2.360286 0.031341 -5.645364
v -2.399106 0.105005 -5.647478
v -2.399106 0.055070 -5.597543
v -2.386128 0.057184 -5.645364
v -2.312465 2.005005 -5.597543
v -2.312465 1.905005 -5.697543
v -2.412465 1.905005 -5.597543
v -2.312465 1.991645 -5.647478
v -2.362400 1.991645 -5.597543
v -2.360286 1.978668 -5.645364
v -2.362400 1.905005 -5.684184
v -2.312465 1.954939 -5.684184
v -2.360286 1.952826 -5.671206
v -2.399106 1.954939 -5.597543
v -2.399106 1.905005 -5.647478
v -2.386128 1.952826 -5.645364
v -0.512465 0.105005 -3.697543
v -0.512465 0.005005 -3.797543
v -0.412465 0.105005 -3.797543
v -0.512465 0.055070 -3.710903
v -0.462531 0.105005 -3.710903
v -0.464644 0.057184 -3.723880
v -0.462531 0.018364 -3.797543
v -0.512465 0.018364 -3.747609
v -0.464644 0.031341 -3.749722
v -0.425825 0.105005 -3.747609
v -0.425825 0.055070 -3.797543
v -0.438802 0.057184 -3.749722
v -0.512465 2.005005 -3.797543
v -0.512465 1.905005 -3.697543
v -0.412465 1.905005 -3.797543
v -0.512465 1.991645 -3.747609
v -0.462531 1.991645 -3.797543
v -0.464644 1.978668 -3.749722
v -0.462531 1.905005 -3.710903
v -0.512465 1.954939 -3.710903
v -0.464644 1.952826 -3.723880
v -0.425825 1.954939 -3.797543
v -0.425825 1.905005 -3.747609
v -0.438802 1.952826 -3.749722
v -0.412465 0.105005 -5.597543
v -0.512465 0.005005 -5.597543
v -0.512465 0.105005 -5.697543
v -0.425825 0.055070 -5.597543
v -0.425825 0.105005 -5.647478
v -0.438802 0.057184 -5.645364
v -0.512465 0.018364 -5.647478
v -0.462531 0.018364 -5.597543
v -0.464644 0.031341 -5.645364
v -0.462531 0.105005 -5.684184
v -0.512465 0.055070 -5.684184
v -0.464644 0.057184 -5.671206
v -0.512465 2.005005 -5.597543
v -0.412465 1.905005 -5.597543
v -0.512465 1.905005 -5.697543
v -0.462531 1.991645 -5.597543
v -0.512465 1.991645 -5.647478
v -0.464644 1.978668 -5.645364
v -0.425825 1.905005 -5.647478
v -0.425825 1.954939 -5.597543
v -0.438802 1.952826 -5.645364
v -0.512465 1.954939 -5.684184
v -0.462531 1.905005 -5.684184
v -0.464644 1.952826 -5.671206
vn 0.0000 -1.0000 0.0000
vn 1.0000 0.0000 0.0000
vn 0.0000 1.0000 0.0000
vn 0.0000 0.0000 1.0000
vn 0.0000 0.0000 -1.0000
vn -0.2502 -0.2502 0.9353
vn -0.6901 -0.2178 0.6901
vn -0.9353 -0.2502 0.2502
vn -0.6901 -0.6901 0.2178
vn -0.2502 -0.9353 0.2502
vn -0.2178 -0.6901 0.6901
vn -0.5774 -0.5773 0.5773
vn -0.2502 0.2502 0.9353
vn -0.2178 0.6901 0.6901
vn -0.2502 0.9353 0.2502
vn -0.6901 0.6901 0.2178
vn -0.9353 0.2502 0.2502
vn -0.6901 0.2178 0.6901
vn -0.5774 0.5773 0.5773
vn -0.2502 -0.2502 -0.9353
vn -0.2178 -0.6901 -0.6901
vn -0.2502 -0.9353 -0.2502
vn -0.6901 -0.6901 -0.2178
vn -0.9353 -0.2502 -0.2502
vn -0.6901 -0.2178 -0.6901
vn -0.5773 -0.5774 -0.5774
vn -0.2502 0.9353 -0.2502
vn -0.2178 0.6901 -0.6901
vn -0.2502 0.2502 -0.9353
vn -0.6901 0.2178 -0.6901
vn -0.9353 0.2502 -0.2502
vn -0.6901 0.6901 -0.2178
vn -0.5773 0.5774 -0.5774
vn 0.2502 -0.2502 0.9353
vn 0.2178 -0.6901 0.6901
vn 0.2502 -0.9353 0.2502
vn 0.6901 -0.6901 0.2178
vn 0.9353 -0.2502 0.2502
vn 0.6901 -0.2178 0.6901
vn 0.5774 -0.5773 0.5773
vn 0.2502 0.9353 0.2502
vn 0.2178 0.6901 0.6901
vn 0.2502 0.2502 0.9353
vn 0.6901 0.2178 0.6901
vn 0.9353 0.2502 0.2502
vn 0.6901 0.6901 0.2178
vn 0.5774 0.5773 0.5773
vn 0.9353 -0.2502 -0.2502
vn 0.6901 -0.6901 -0.2178
vn 0.2502 -0.9353 -0.2502
vn 0.2178 -0.6901 -0.6901
vn 0.2502 -0.2502 -0.9353
vn 0.6901 -0.2178 -0.6901
vn 0.5773 -0.5774 -0.5774
vn 0.2502 0.9353 -0.2502
vn 0.6901 0.6901 -0.2178
vn 0.9353 0.2502 -0.2502
vn 0.6901 0.2178 -0.6901
vn 0.2502 0.2502 -0.9353
vn 0.2178 0.6901 -0.6901
vn 0.5773 0.5774 -0.5774
vn -0.2584 0.0000 0.9660
vn -0.7071 0.0000 0.7071
vn -0.9660 0.0000 0.2585
vn -0.2585 0.9660 0.0000
vn -0.7071 0.7071 0.0000
vn -0.9660 0.2584 0.0000
vn -0.2584 0.0000 -0.9660
vn -0.7071 0.0000 -0.7071
vn -0.9660 0.0000 -0.2585
vn -0.2585 -0.9660 0.0000
vn -0.7071 -0.7071 0.0000
vn -0.9660 -0.2584 0.0000
vn 0.0000 0.9660 -0.2585
vn 0.0000 0.7071 -0.7071
vn 0.0000 0.2585 -0.9660
vn 0.9660 0.0000 -0.2585
vn 0.7071 0.0000 -0.7071
vn 0.2585 0.0000 -0.9660
vn 0.0000 -0.9660 -0.2585
vn 0.0000 -0.7071 -0.7071
vn 0.0000 -0.2585 -0.9660
vn 0.2585 0.9660 0.0000
vn 0.7071 0.7071 0.0000
vn 0.9660 0.2585 0.0000
vn 0.2584 0.0000 0.9660
vn 0.7071 0.0000 0.7071
vn 0.9660 0.0000 0.2585
vn 0.2585 -0.9660 0.0000
vn 0.7071 -0.7071 0.0000
vn 0.9660 -0.2585 0.0000
vn 0.0000 0.9660 0.2585
vn 0.0000 0.7071 0.7071
vn 0.0000 0.2585 0.9660
vn 0.0000 -0.9660 0.2585
vn 0.0000 -0.7071 0.7071
vn 0.0000 -0.2585 0.9660
vn -1.0000 0.0000 0.0000
vn -0.2635 -0.2635 0.9280
vn -0.9280 -0.2635 0.2635
vn -0.2635 -0.9280 0.2635
vn -0.2635 0.2635 0.9280
vn -0.2635 0.9280 0.2635
vn -0.9280 0.2635 0.2635
vn -0.2635 -0.2635 -0.9280
vn -0.2635 -0.9280 -0.2635
vn -0.9280 -0.2635 -0.2635
vn -0.2635 0.9280 -0.2635
vn -0.2635 0.2635 -0.9280
vn -0.9280 0.2635 -0.2635
vn 0.2635 -0.2635 0.9280
vn 0.2635 -0.9280 0.2635
vn 0.9280 -0.2635 0.2635
vn 0.2635 0.9280 0.2635
vn 0.2635 0.2635 0.9280
vn 0.9280 0.2635 0.2635
vn 0.9280 -0.2635 -0.2635
vn 0.2635 -0.9280 -0.2635
vn 0.2635 -0.2635 -0.9280
vn 0.2635 0.9280 -0.2635
vn 0.9280 0.2635 -0.2635
vn 0.2635 0.2635 -0.9280
vn -0.9660 0.2585 0.0000
vn -0.2585 0.0000 -0.9660
vn -0.9660 -0.2585 0.0000
vn 0.0000 0.9660 -0.2584
vn 0.2584 0.0000 -0.9660
vn 0.0000 0.9660 0.2584
usemtl Material.003
s off
f 26//1 50//1 3//1
f 63//2 73//2 86//2
f 85//3 14//3 61//3
f 13//4 49//4 62//4
f 87//5 25//5 38//5
f 4//6 5//6 1//6
f 8//7 6//7 4//7
f 7//8 8//8 2//8
f 11//9 9//9 7//9
f 10//10 11//10 3//10
f 5//11 12//11 10//11
f 6//12 9//12 12//12
f 16//13 17//13 13//13
f 20//14 18//14 16//14
f 19//15 20//15 14//15
f 23//16 21//16 19//16
f 22//17 23//17 15//17
f 17//18 24//18 22//18
f 18//19 21//19 24//19
f 28//20 29//20 25//20
f 32//21 30//21 28//21
f 31//22 32//22 26//22
f 35//23 33//23 31//23
f 34//24 35//24 27//24
f 29//25 36//25 34//25
f 30//26 33//26 36//26
f 40//27 41//27 37//27
f 44//28 42//28 40//28
f 43//29 44//29 38//29
f 47//30 45//30 43//30
f 46//31 47//31 39//31
f 41//32 48//32 46//32
f 42//33 45//33 48//33
f 52//34 53//34 49//34
f 56//35 54//35 52//35
f 55//36 56//36 50//36
f 59//37 57//37 55//37
f 58//38 59//38 51//38
f 53//39 60//39 58//39
f 54//40 57//40 60//40
f 64//41 65//41 61//41
f 68//42 66//42 64//42
f 67//43 68//43 62//43
f 71//44 69//44 67//44
f 70//45 71//45 63//45
f 65//46 72//46 70//46
f 66//47 69//47 72//47
f 76//48 77//48 73//48
f 80//49 78//49 76//49
f 79//50 80//50 74//50
f 83//51 81//51 79//51
f 82//52 83//52 75//52
f 77//53 84//53 82//53
f 78//54 81//54 84//54
f 88//55 89//55 85//55
f 92//56 90//56 88//56
f 91//57 92//57 86//57
f 95//58 93//58 91//58
f 94//59 95//59 87//59
f 89//60 96//60 94//60
f 90//61 93//61 96//61
f 13//62 4//62 1//62
f 17//63 8//63 4//63
f 22//64 2//64 8//64
f 37//65 19//65 14//65
f 41//66 23//66 19//66
f 46//67 15//67 23//67
f 25//68 43//68 38//68
f 29//69 47//69 43//69
f 34//70 39//70 47//70
f 3//71 31//71 26//71
f 11//72 35//72 31//72
f 7//73 27//73 35//73
f 85//74 40//74 37//74
f 89//75 44//75 40//75
f 94//76 38//76 44//76
f 73//77 91//77 86//77
f 77//78 95//78 91//78
f 82//79 87//79 95//79
f 26//80 79//80 74//80
f 32//81 83//81 79//81
f 28//82 75//82 83//82
f 61//83 88//83 85//83
f 65//84 92//84 88//84
f 70//85 86//85 92//85
f 49//86 67//86 62//86
f 53//87 71//87 67//87
f 58//88 63//88 71//88
f 74//89 55//89 50//89
f 80//90 59//90 55//90
f 76//91 51//91 59//91
f 14//92 64//92 61//92
f 20//93 68//93 64//93
f 16//94 62//94 68//94
f 50//95 10//95 3//95
f 56//96 5//96 10//96
f 52//97 1//97 5//97
f 39//98 2//98 15//98
f 26//1 74//1 50//1
f 63//2 51//2 73//2
f 85//3 37//3 14//3
f 13//4 1//4 49//4
f 87//5 75//5 25//5
f 4//99 6//99 5//99
f 8//7 9//7 6//7
f 7//100 9//100 8//100
f 11//9 12//9 9//9
f 10//101 12//101 11//101
f 5//11 6//11 12//11
f 16//102 18//102 17//102
f 20//14 21//14 18//14
f 19//103 21//103 20//103
f 23//16 24//16 21//16
f 22//104 24//104 23//104
f 17//18 18//18 24//18
f 28//105 30//105 29//105
f 32//21 33//21 30//21
f 31//106 33//106 32//106
f 35//23 36//23 33//23
f 34//107 36//107 35//107
f 29//25 30//25 36//25
f 40//108 42//108 41//108
f 44//28 45//28 42//28
f 43//109 45//109 44//109
f 47//30 48//30 45//30
f 46//110 48//110 47//110
f 41//32 42//32 48//32
f 52//111 54//111 53//111
f 56//35 57//35 54//35
f 55//112 57//112 56//112
f 59//37 60//37 57//37
f 58//113 60//113 59//113
f 53//39 54//39 60//39
f 64//114 66//114 65//114
f 68//42 69//42 66//42
f 67//115 69//115 68//115
f 71//44 72//44 69//44
f 70//116 72//116 71//116
f 65//46 66//46 72//46
f 76//117 78//117 77//117
f 80//49 81//49 78//49
f 79//118 81//118 80//118
f 83//51 84//51 81//51
f 82//119 84//119 83//119
f 77//53 78//53 84//53
f 88//120 90//120 89//120
f 92//56 93//56 90//56
f 91//121 93//121 92//121
f 95//58 96//58 93//58
f 94//122 96//122 95//122
f 89//60 90//60 96//60
f 13//62 17//62 4//62
f 17//63 22//63 8//63
f 22//64 15//64 2//64
f 37//65 41//65 19//65
f 41//66 46//66 23//66
f 46//123 39//123 15//123
f 25//124 29//124 43//124
f 29//69 34//69 47//69
f 34//70 27//70 39//70
f 3//71 11//71 31//71
f 11//72 7//72 35//72
f 7//125 2//125 27//125
f 85//126 89//126 40//126
f 89//75 94//75 44//75
f 94//76 87//76 38//76
f 73//77 77//77 91//77
f 77//78 82//78 95//78
f 82//127 75//127 87//127
f 26//80 32//80 79//80
f 32//81 28//81 83//81
f 28//82 25//82 75//82
f 61//83 65//83 88//83
f 65//84 70//84 92//84
f 70//85 63//85 86//85
f 49//86 53//86 67//86
f 53//87 58//87 71//87
f 58//88 51//88 63//88
f 74//89 80//89 55//89
f 80//90 76//90 59//90
f 76//91 73//91 51//91
f 14//128 20//128 64//128
f 20//93 16//93 68//93
f 16//94 13//94 62//94
f 50//95 56//95 10//95
f 56//96 52//96 5//96
f 52//97 49//97 1//97
f 39//98 27//98 2//98
o Plane
v 1000.000000 -0.000163 1000.000000
v -1000.000000 0.000163 -1000.000000
v -1000.000000 -0.000163 1000.000000
v 1000.000000 0.000163 -1000.000000
vn 0.0000 1.0000 0.0000
usemtl Material.002
s 1
f 97//129 98//129 99//129
f 97//129 100//129 98//129
o Cube.000_Cube.004
v 0.542679 0.050000 -6.200647
v 0.492679 0.050000 -6.250648
v 0.542679 0.000000 -6.250648
v 0.517712 0.050000 -6.207327
v 0.542679 0.025033 -6.207327
v 0.518768 0.026089 -6.213816
v 0.499359 0.025033 -6.250648
v 0.499359 0.050000 -6.225680
v 0.505847 0.026089 -6.226737
v 0.542679 0.006680 -6.225680
v 0.517712 0.006680 -6.250648
v 0.518768 0.013168 -6.226737
v 0.542679 0.950000 -6.200647
v 0.542679 1.000000 -6.250648
v 0.492679 0.950000 -6.250648
v 0.542679 0.974967 -6.207327
v 0.517712 0.950000 -6.207327
v 0.518768 0.973911 -6.213816
v 0.517712 0.993320 -6.250648
v 0.542679 0.993320 -6.225680
v 0.518768 0.986832 -6.226737
v 0.499359 0.950000 -6.225680
v 0.499359 0.974967 -6.250648
v 0.505847 0.973911 -6.226737
v 0.542679 0.050000 -7.200647
v 0.542679 0.000000 -7.150647
v 0.492679 0.050000 -7.150647
v 0.542679 0.025033 -7.193967
v 0.517712 0.050000 -7.193967
v 0.518768 0.026089 -7.187479
v 0.517712 0.006680 -7.150647
v 0.542679 0.006680 -7.175614
v 0.518768 0.013168 -7.174558
v 0.499359 0.050000 -7.175614
v 0.499359 0.025033 -7.150647
v 0.505847 0.026089 -7.174558
v 0.542679 1.000000 -7.150647
v 0.542679 0.950000 -7.200647
v 0.492679 0.950000 -7.150647
v 0.542679 0.993320 -7.175614
v 0.517712 0.993320 -7.150647
v 0.518768 0.986832 -7.174558
v 0.517712 0.950000 -7.193967
v 0.542679 0.974967 -7.193967
v 0.518768 0.973911 -7.187479
v 0.499359 0.974967 -7.150647
v 0.499359 0.950000 -7.175614
v 0.505847 0.973911 -7.174558
v 1.442679 0.050000 -6.200647
v 1.442679 0.000000 -6.250648
v 1.492679 0.050000 -6.250648
v 1.442679 0.025033 -6.207327
v 1.467646 0.050000 -6.207327
v 1.466589 0.026089 -6.213816
v 1.467646 0.006680 -6.250648
v 1.442679 0.006680 -6.225680
v 1.466589 0.013168 -6.226737
v 1.485999 0.050000 -6.225680
v 1.485999 0.025033 -6.250648
v 1.479511 0.026089 -6.226737
v 1.442679 1.000000 -6.250648
v 1.442679 0.950000 -6.200647
v 1.492679 0.950000 -6.250648
v 1.442679 0.993320 -6.225680
v 1.467646 0.993320 -6.250648
v 1.466589 0.986832 -6.226737
v 1.467646 0.950000 -6.207327
v 1.442679 0.974967 -6.207327
v 1.466589 0.973911 -6.213816
v 1.485999 0.974967 -6.250648
v 1.485999 0.950000 -6.225680
v 1.479511 0.973911 -6.226737
v 1.492679 0.050000 -7.150647
v 1.442679 0.000000 -7.150647
v 1.442679 0.050000 -7.200647
v 1.485999 0.025033 -7.150647
v 1.485999 0.050000 -7.175614
v 1.479511 0.026089 -7.174558
v 1.442679 0.006680 -7.175614
v 1.467646 0.006680 -7.150647
v 1.466589 0.013168 -7.174558
v 1.467646 0.050000 -7.193967
v 1.442679 0.025033 -7.193967
v 1.466589 0.026089 -7.187479
v 1.442679 1.000000 -7.150647
v 1.492679 0.950000 -7.150647
v 1.442679 0.950000 -7.200647
v 1.467646 0.993320 -7.150647
v 1.442679 0.993320 -7.175614
v 1.466589 0.986832 -7.174558
v 1.485999 0.950000 -7.175614
v 1.485999 0.974967 -7.150647
v 1.479511 0.973911 -7.174558
v 1.442679 0.974967 -7.193967
v 1.467646 0.950000 -7.193967
v 1.466589 0.973911 -7.187479
vn 0.0000 -1.0000 0.0000
vn 1.0000 0.0000 0.0000
vn 0.0000 1.0000 0.0000
vn 0.0000 0.0000 1.0000
vn 0.0000 0.0000 -1.0000
vn -0.2502 -0.2502 0.9353
vn -0.6901 -0.2178 0.6901
vn -0.9353 -0.2502 0.2502
vn -0.6901 -0.6901 0.2178
vn -0.2502 -0.9353 0.2502
vn -0.2178 -0.6901 0.6901
vn -0.5774 -0.5773 0.5773
vn -0.2502 0.2502 0.9353
vn -0.2178 0.6901 0.6901
vn -0.2502 0.9353 0.2502
vn -0.6901 0.6901 0.2178
vn -0.9353 0.2502 0.2502
vn -0.6901 0.2178 0.6902
vn -0.5773 0.5774 0.5773
vn -0.2503 -0.2502 -0.9353
vn -0.2177 -0.6901 -0.6901
vn -0.2502 -0.9353 -0.2502
vn -0.6901 -0.6902 -0.2178
vn -0.9353 -0.2502 -0.2502
vn -0.6901 -0.2178 -0.6902
vn -0.5774 -0.5773 -0.5773
vn -0.2502 0.9353 -0.2502
vn -0.2178 0.6901 -0.6901
vn -0.2503 0.2502 -0.9353
vn -0.6901 0.2178 -0.6901
vn -0.9353 0.2502 -0.2502
vn -0.6901 0.6901 -0.2178
vn -0.5773 0.5774 -0.5773
vn 0.2502 -0.2502 0.9353
vn 0.2177 -0.6901 0.6901
vn 0.2502 -0.9353 0.2502
vn 0.6901 -0.6901 0.2178
vn 0.9353 -0.2502 0.2502
vn 0.6901 -0.2178 0.6902
vn 0.5774 -0.5773 0.5773
vn 0.2502 0.9353 0.2502
vn 0.2178 0.6901 0.6901
vn 0.2502 0.2502 0.9353
vn 0.6901 0.2178 0.6901
vn 0.9353 0.2502 0.2502
vn 0.6901 0.6901 0.2178
vn 0.5773 0.5774 0.5774
vn 0.9353 -0.2502 -0.2502
vn 0.6901 -0.6901 -0.2178
vn 0.2502 -0.9353 -0.2502
vn 0.2178 -0.6901 -0.6901
vn 0.2503 -0.2502 -0.9353
vn 0.6901 -0.2178 -0.6901
vn 0.5774 -0.5773 -0.5773
vn 0.2502 0.9353 -0.2502
vn 0.6901 0.6901 -0.2178
vn 0.9353 0.2502 -0.2502
vn 0.6901 0.2178 -0.6902
vn 0.2503 0.2502 -0.9353
vn 0.2178 0.6901 -0.6901
vn 0.5773 0.5774 -0.5774
vn -0.2584 0.0000 0.9660
vn -0.7071 0.0000 0.7071
vn -0.9660 0.0000 0.2585
vn -0.2585 0.9660 0.0000
vn -0.7071 0.7071 0.0000
vn -0.9660 0.2585 0.0000
vn -0.2584 0.0000 -0.9660
vn -0.7071 0.0000 -0.7071
vn -0.9660 0.0000 -0.2585
vn -0.2585 -0.9660 0.0000
vn -0.7071 -0.7071 0.0000
vn -0.9660 -0.2585 0.0000
vn 0.0000 0.9660 -0.2585
vn 0.0000 0.7071 -0.7071
vn 0.0000 0.2585 -0.9660
vn 0.9660 0.0000 -0.2585
vn 0.7071 0.0000 -0.7071
vn 0.2585 0.0000 -0.9660
vn 0.0000 -0.9660 -0.2585
vn 0.0000 -0.7071 -0.7071
vn 0.0000 -0.2585 -0.9660
vn 0.2585 0.9660 0.0000
vn 0.7071 0.7071 0.0000
vn 0.9660 0.2584 0.0000
vn 0.2584 0.0000 0.9660
vn 0.7071 0.0000 0.7071
vn 0.9660 0.0000 0.2585
vn 0.2585 -0.9660 0.0000
vn 0.7071 -0.7071 0.0000
vn 0.9660 -0.2584 0.0000
vn 0.0000 0.9660 0.2585
vn 0.0000 0.7071 0.7071
vn 0.0000 0.2585 0.9660
vn 0.0000 -0.9660 0.2585
vn 0.0000 -0.7071 0.7071
vn 0.0000 -0.2585 0.9660
vn -1.0000 0.0000 0.0000
vn -0.2634 -0.2635 0.9280
vn -0.9280 -0.2635 0.2635
vn -0.6901 -0.6902 0.2178
vn -0.2635 -0.9280 0.2635
vn -0.2634 0.2635 0.9280
vn -0.2635 0.9280 0.2635
vn -0.9280 0.2635 0.2635
vn -0.6902 0.2178 0.6901
vn -0.2634 -0.2635 -0.9280
vn -0.2178 -0.6901 -0.6901
vn -0.2635 -0.9280 -0.2635
vn -0.6901 -0.6901 -0.2178
vn -0.9280 -0.2635 -0.2635
vn -0.6902 -0.2178 -0.6901
vn -0.2635 0.9280 -0.2635
vn -0.2634 0.2635 -0.9280
vn -0.9280 0.2635 -0.2635
vn 0.2634 -0.2635 0.9280
vn 0.2178 -0.6901 0.6901
vn 0.2635 -0.9280 0.2635
vn 0.6901 -0.6902 0.2178
vn 0.9280 -0.2635 0.2635
vn 0.6902 -0.2178 0.6901
vn 0.2635 0.9280 0.2635
vn 0.2634 0.2635 0.9280
vn 0.9280 0.2635 0.2635
vn 0.6902 0.6901 0.2178
vn 0.9280 -0.2635 -0.2635
vn 0.2635 -0.9280 -0.2635
vn 0.2634 -0.2635 -0.9280
vn 0.2635 0.9280 -0.2635
vn 0.9280 0.2635 -0.2635
vn 0.6902 0.2178 -0.6901
vn 0.2634 0.2635 -0.9280
vn -0.2585 0.0000 0.9660
vn -0.2585 0.0000 -0.9660
vn 0.0000 0.9660 -0.2584
vn 0.2584 0.0000 -0.9660
vn 0.2585 0.0000 0.9660
vn 0.0000 0.9660 0.2584
usemtl Material.005
s off
f 126//130 150//130 103//130
f 163//131 173//131 186//131
f 185//132 114//132 161//132
f 113//133 149//133 162//133
f 187//134 125//134 138//134
f 104//135 105//135 101//135
f 108//136 106//136 104//136
f 107//137 108//137 102//137
f 111//138 109//138 107//138
f 110//139 111//139 103//139
f 105//140 112//140 110//140
f 106//141 109//141 112//141
f 116//142 117//142 113//142
f 120//143 118//143 116//143
f 119//144 120//144 114//144
f 123//145 121//145 119//145
f 122//146 123//146 115//146
f 117//147 124//147 122//147
f 118//148 121//148 124//148
f 128//149 129//149 125//149
f 132//150 130//150 128//150
f 131//151 132//151 126//151
f 135//152 133//152 131//152
f 134//153 135//153 127//153
f 129//154 136//154 134//154
f 130//155 133//155 136//155
f 140//156 141//156 137//156
f 144//157 142//157 140//157
f 143//158 144//158 138//158
f 147//159 145//159 143//159
f 146//160 147//160 139//160
f 141//161 148//161 146//161
f 142//162 145//162 148//162
f 152//163 153//163 149//163
f 156//164 154//164 152//164
f 155//165 156//165 150//165
f 159//166 157//166 155//166
f 158//167 159//167 151//167
f 153//168 160//168 158//168
f 154//169 157//169 160//169
f 164//170 165//170 161//170
f 168//171 166//171 164//171
f 167//172 168//172 162//172
f 171//173 169//173 167//173
f 170//174 171//174 163//174
f 165//175 172//175 170//175
f 166//176 169//176 172//176
f 176//177 177//177 173//177
f 180//178 178//178 176//178
f 179//179 180//179 174//179
f 183//180 181//180 179//180
f 182//181 183//181 175//181
f 177//182 184//182 182//182
f 178//183 181//183 184//183
f 188//184 189//184 185//184
f 192//185 190//185 188//185
f 191//186 192//186 186//186
f 195//187 193//187 191//187
f 194//188 195//188 187//188
f 189//189 196//189 194//189
f 190//190 193//190 196//190
f 113//191 104//191 101//191
f 117//192 108//192 104//192
f 122//193 102//193 108//193
f 137//194 119//194 114//194
f 141//195 123//195 119//195
f 146//196 115//196 123//196
f 125//197 143//197 138//197
f 129//198 147//198 143//198
f 134//199 139//199 147//199
f 103//200 131//200 126//200
f 111//201 135//201 131//201
f 107//202 127//202 135//202
f 185//203 140//203 137//203
f 189//204 144//204 140//204
f 194//205 138//205 144//205
f 173//206 191//206 186//206
f 177//207 195//207 191//207
f 182//208 187//208 195//208
f 126//209 179//209 174//209
f 132//210 183//210 179//210
f 128//211 175//211 183//211
f 161//212 188//212 185//212
f 165//213 192//213 188//213
f 170//214 186//214 192//214
f 149//215 167//215 162//215
f 153//216 171//216 167//216
f 158//217 163//217 171//217
f 174//218 155//218 150//218
f 180//219 159//219 155//219
f 176//220 151//220 159//220
f 114//221 164//221 161//221
f 120//222 168//222 164//222
f 116//223 162//223 168//223
f 150//224 110//224 103//224
f 156//225 105//225 110//225
f 152//226 101//226 105//226
f 139//227 102//227 115//227
f 126//130 174//130 150//130
f 163//131 151//131 173//131
f 185//132 137//132 114//132
f 113//133 101//133 149//133
f 187//134 175//134 125//134
f 104//228 106//228 105//228
f 108//136 109//136 106//136
f 107//229 109//229 108//229
f 111//230 112//230 109//230
f 110//231 112//231 111//231
f 105//140 106//140 112//140
f 116//232 118//232 117//232
f 120//143 121//143 118//143
f 119//233 121//233 120//233
f 123//145 124//145 121//145
f 122//234 124//234 123//234
f 117//235 118//235 124//235
f 128//236 130//236 129//236
f 132//237 133//237 130//237
f 131//238 133//238 132//238
f 135//239 136//239 133//239
f 134//240 136//240 135//240
f 129//241 130//241 136//241
f 140//242 142//242 141//242
f 144//157 145//157 142//157
f 143//243 145//243 144//243
f 147//159 148//159 145//159
f 146//244 148//244 147//244
f 141//161 142//161 148//161
f 152//245 154//245 153//245
f 156//246 157//246 154//246
f 155//247 157//247 156//247
f 159//248 160//248 157//248
f 158//249 160//249 159//249
f 153//250 154//250 160//250
f 164//251 166//251 165//251
f 168//171 169//171 166//171
f 167//252 169//252 168//252
f 171//173 172//173 169//173
f 170//253 172//253 171//253
f 165//254 166//254 172//254
f 176//255 178//255 177//255
f 180//178 181//178 178//178
f 179//256 181//256 180//256
f 183//180 184//180 181//180
f 182//257 184//257 183//257
f 177//182 178//182 184//182
f 188//258 190//258 189//258
f 192//185 193//185 190//185
f 191//259 193//259 192//259
f 195//260 196//260 193//260
f 194//261 196//261 195//261
f 189//189 190//189 196//189
f 113//262 117//262 104//262
f 117//192 122//192 108//192
f 122//193 115//193 102//193
f 137//194 141//194 119//194
f 141//195 146//195 123//195
f 146//196 139//196 115//196
f 125//263 129//263 143//263
f 129//198 134//198 147//198
f 134//199 127//199 139//199
f 103//200 111//200 131//200
f 111//201 107//201 135//201
f 107//202 102//202 127//202
f 185//264 189//264 140//264
f 189//204 194//204 144//204
f 194//205 187//205 138//205
f 173//206 177//206 191//206
f 177//207 182//207 195//207
f 182//265 175//265 187//265
f 126//209 132//209 179//209
f 132//210 128//210 183//210
f 128//211 125//211 175//211
f 161//212 165//212 188//212
f 165//213 170//213 192//213
f 170//214 163//214 186//214
f 149//266 153//266 167//266
f 153//216 158//216 171//216
f 158//217 151//217 163//217
f 174//218 180//218 155//218
f 180//219 176//219 159//219
f 176//220 173//220 151//220
f 114//267 120//267 164//267
f 120//222 116//222 168//222
f 116//223 113//223 162//223
f 150//224 156//224 110//224
f 156//225 152//225 105//225
f 152//226 149//226 101//226
f 139//227 127//227 102//227
