# Blender v2.77 (sub 0) OBJ File: ''
# www.blender.org
mtllib cube.mtl
o Icosphere
v -0.352640 0.421204 -4.852283
v -0.048725 0.653371 -4.631478
v -0.468723 0.653371 -4.495010
v -0.728299 0.653373 -4.852283
v -0.468723 0.653371 -5.209555
v -0.048725 0.653371 -5.073087
v -0.236557 1.029036 -4.495010
v -0.656555 1.029036 -4.631478
v -0.656555 1.029036 -5.073087
v -0.236557 1.029036 -5.209555
v 0.023019 1.029034 -4.852283
v -0.352640 1.261204 -4.852283
v -0.420871 0.483929 -4.642284
v -0.174004 0.483929 -4.722498
v -0.242235 0.620394 -4.512497
v 0.004632 0.620395 -4.852283
v -0.174004 0.483929 -4.982067
v -0.573446 0.483930 -4.852283
v -0.641679 0.620394 -4.642284
v -0.420871 0.483929 -5.062281
v -0.641679 0.620394 -5.062281
v -0.242235 0.620394 -5.192068
v 0.046804 0.841204 -4.722497
v 0.046804 0.841204 -4.982068
v -0.352640 0.841204 -4.432282
v -0.105770 0.841204 -4.512496
v -0.752084 0.841204 -4.722497
v -0.599510 0.841204 -4.512496
v -0.599510 0.841204 -5.192070
v -0.752084 0.841204 -4.982068
v -0.105770 0.841204 -5.192070
v -0.352640 0.841204 -5.272283
v -0.063600 1.062013 -4.642284
v -0.463045 1.062013 -4.512497
v -0.709912 1.062013 -4.852283
v -0.463045 1.062013 -5.192068
v -0.063600 1.062013 -5.062281
v -0.284409 1.198478 -4.642284
v -0.131833 1.198477 -4.852283
v -0.531275 1.198478 -4.722498
v -0.531275 1.198478 -4.982067
v -0.284409 1.198478 -5.062281
v -0.420871 0.483929 -4.642284
v -0.420871 0.483929 -4.642284
v -0.420871 0.483929 -4.642284
v -0.420871 0.483929 -4.642284
v -0.420871 0.483929 -4.642284
v -0.352640 0.421204 -4.852283
v -0.352640 0.421204 -4.852283
v -0.352640 0.421204 -4.852283
v -0.352640 0.421204 -4.852283
v -0.174004 0.483929 -4.722498
v -0.174004 0.483929 -4.722498
v -0.174004 0.483929 -4.722498
v -0.174004 0.483929 -4.722498
v -0.174004 0.483929 -4.722498
v -0.048725 0.653371 -4.631478
v -0.048725 0.653371 -4.631478
v -0.048725 0.653371 -4.631478
v -0.048725 0.653371 -4.631478
v -0.242235 0.620394 -4.512497
v -0.242235 0.620394 -4.512497
v -0.242235 0.620394 -4.512497
v -0.242235 0.620394 -4.512497
v -0.242235 0.620394 -4.512497
v -0.468723 0.653371 -4.495010
v -0.468723 0.653371 -4.495010
v -0.468723 0.653371 -4.495010
v -0.468723 0.653371 -4.495010
v 0.004632 0.620395 -4.852283
v 0.004632 0.620395 -4.852283
v 0.004632 0.620395 -4.852283
v 0.004632 0.620395 -4.852283
v 0.004632 0.620395 -4.852283
v -0.174004 0.483929 -4.982067
v -0.174004 0.483929 -4.982067
v -0.174004 0.483929 -4.982067
v -0.174004 0.483929 -4.982067
v -0.174004 0.483929 -4.982067
v -0.048725 0.653371 -5.073087
v -0.048725 0.653371 -5.073087
v -0.048725 0.653371 -5.073087
v -0.048725 0.653371 -5.073087
v -0.573446 0.483930 -4.852283
v -0.573446 0.483930 -4.852283
v -0.573446 0.483930 -4.852283
v -0.573446 0.483930 -4.852283
v -0.573446 0.483930 -4.852283
v -0.641679 0.620394 -4.642284
v -0.641679 0.620394 -4.642284
v -0.641679 0.620394 -4.642284
v -0.641679 0.620394 -4.642284
v -0.641679 0.620394 -4.642284
v -0.728299 0.653373 -4.852283
v -0.728299 0.653373 -4.852283
v -0.728299 0.653373 -4.852283
v -0.728299 0.653373 -4.852283
v -0.420871 0.483929 -5.062281
v -0.420871 0.483929 -5.062281
v -0.420871 0.483929 -5.062281
v -0.420871 0.483929 -5.062281
v -0.420871 0.483929 -5.062281
v -0.641679 0.620394 -5.062281
v -0.641679 0.620394 -5.062281
v -0.641679 0.620394 -5.062281
v -0.641679 0.620394 -5.062281
v -0.641679 0.620394 -5.062281
v -0.468723 0.653371 -5.209555
v -0.468723 0.653371 -5.209555
v -0.468723 0.653371 -5.209555
v -0.468723 0.653371 -5.209555
v -0.242235 0.620394 -5.192068
v -0.242235 0.620394 -5.192068
v -0.242235 0.620394 -5.192068
v -0.242235 0.620394 -5.192068
v -0.242235 0.620394 -5.192068
v 0.046804 0.841204 -4.722497
v 0.046804 0.841204 -4.722497
v 0.046804 0.841204 -4.722497
v 0.046804 0.841204 -4.722497
v 0.046804 0.841204 -4.722497
v 0.046804 0.841204 -4.982068
v 0.046804 0.841204 -4.982068
v 0.046804 0.841204 -4.982068
v 0.046804 0.841204 -4.982068
v 0.046804 0.841204 -4.982068
v 0.023019 1.029034 -4.852283
v 0.023019 1.029034 -4.852283
v 0.023019 1.029034 -4.852283
v 0.023019 1.029034 -4.852283
v -0.352640 0.841204 -4.432282
v -0.352640 0.841204 -4.432282
v -0.352640 0.841204 -4.432282
v -0.352640 0.841204 -4.432282
v -0.352640 0.841204 -4.432282
v -0.105770 0.841204 -4.512496
v -0.105770 0.841204 -4.512496
v -0.105770 0.841204 -4.512496
v -0.105770 0.841204 -4.512496
v -0.105770 0.841204 -4.512496
v -0.236557 1.029036 -4.495010
v -0.236557 1.029036 -4.495010
v -0.236557 1.029036 -4.495010
v -0.236557 1.029036 -4.495010
v -0.752084 0.841204 -4.722497
v -0.752084 0.841204 -4.722497
v -0.752084 0.841204 -4.722497
v -0.752084 0.841204 -4.722497
v -0.752084 0.841204 -4.722497
v -0.599510 0.841204 -4.512496
v -0.599510 0.841204 -4.512496
v -0.599510 0.841204 -4.512496
v -0.599510 0.841204 -4.512496
v -0.599510 0.841204 -4.512496
v -0.656555 1.029036 -4.631478
v -0.656555 1.029036 -4.631478
v -0.656555 1.029036 -4.631478
v -0.656555 1.029036 -4.631478
v -0.599510 0.841204 -5.192070
v -0.599510 0.841204 -5.192070
v -0.599510 0.841204 -5.192070
v -0.599510 0.841204 -5.192070
v -0.599510 0.841204 -5.192070
v -0.752084 0.841204 -4.982068
v -0.752084 0.841204 -4.982068
v -0.752084 0.841204 -4.982068
v -0.752084 0.841204 -4.982068
v -0.752084 0.841204 -4.982068
v -0.656555 1.029036 -5.073087
v -0.656555 1.029036 -5.073087
v -0.656555 1.029036 -5.073087
v -0.656555 1.029036 -5.073087
v -0.105770 0.841204 -5.192070
v -0.105770 0.841204 -5.192070
v -0.105770 0.841204 -5.192070
v -0.105770 0.841204 -5.192070
v -0.105770 0.841204 -5.192070
v -0.352640 0.841204 -5.272283
v -0.352640 0.841204 -5.272283
v -0.352640 0.841204 -5.272283
v -0.352640 0.841204 -5.272283
v -0.352640 0.841204 -5.272283
v -0.236557 1.029036 -5.209555
v -0.236557 1.029036 -5.209555
v -0.236557 1.029036 -5.209555
v -0.236557 1.029036 -5.209555
v -0.063600 1.062013 -4.642284
v -0.063600 1.062013 -4.642284
v -0.063600 1.062013 -4.642284
v -0.063600 1.062013 -4.642284
v -0.063600 1.062013 -4.642284
v -0.463045 1.062013 -4.512497
v -0.463045 1.062013 -4.512497
v -0.463045 1.062013 -4.512497
v -0.463045 1.062013 -4.512497
v -0.463045 1.062013 -4.512497
v -0.709912 1.062013 -4.852283
v -0.709912 1.062013 -4.852283
v -0.709912 1.062013 -4.852283
v -0.709912 1.062013 -4.852283
v -0.709912 1.062013 -4.852283
v -0.463045 1.062013 -5.192068
v -0.463045 1.062013 -5.192068
v -0.463045 1.062013 -5.192068
v -0.463045 1.062013 -5.192068
v -0.463045 1.062013 -5.192068
v -0.063600 1.062013 -5.062281
v -0.063600 1.062013 -5.062281
v -0.063600 1.062013 -5.062281
v -0.063600 1.062013 -5.062281
v -0.063600 1.062013 -5.062281
v -0.284409 1.198478 -4.642284
v -0.284409 1.198478 -4.642284
v -0.284409 1.198478 -4.642284
v -0.284409 1.198478 -4.642284
v -0.284409 1.198478 -4.642284
v -0.131833 1.198477 -4.852283
v -0.131833 1.198477 -4.852283
v -0.131833 1.198477 -4.852283
v -0.131833 1.198477 -4.852283
v -0.131833 1.198477 -4.852283
v -0.352640 1.261204 -4.852283
v -0.352640 1.261204 -4.852283
v -0.352640 1.261204 -4.852283
v -0.352640 1.261204 -4.852283
v -0.531275 1.198478 -4.722498
v -0.531275 1.198478 -4.722498
v -0.531275 1.198478 -4.722498
v -0.531275 1.198478 -4.722498
v -0.531275 1.198478 -4.722498
v -0.531275 1.198478 -4.982067
v -0.531275 1.198478 -4.982067
v -0.531275 1.198478 -4.982067
v -0.531275 1.198478 -4.982067
v -0.531275 1.198478 -4.982067
v -0.284409 1.198478 -5.062281
v -0.284409 1.198478 -5.062281
v -0.284409 1.198478 -5.062281
v -0.284409 1.198478 -5.062281
v -0.284409 1.198478 -5.062281
vn 0.1024 -0.9435 0.3151
vn 0.7002 -0.6617 0.2680
vn -0.2680 -0.9435 0.1947
vn -0.2680 -0.9435 -0.1947
vn 0.1024 -0.9435 -0.3151
vn 0.9050 -0.3304 0.2680
vn 0.0247 -0.3304 0.9435
vn -0.8897 -0.3304 0.3151
vn -0.5746 -0.3304 -0.7488
vn 0.5346 -0.3304 -0.7779
vn 0.8026 -0.1256 0.5831
vn -0.3066 -0.1256 0.9435
vn -0.9921 -0.1256 0.0000
vn -0.3066 -0.1256 -0.9435
vn 0.8026 -0.1256 -0.5831
vn 0.4089 0.6617 0.6284
vn -0.4713 0.6617 0.5831
vn -0.7002 0.6617 -0.2680
vn 0.0385 0.6617 -0.7488
vn 0.7240 0.6617 -0.1947
vn 0.2680 0.9435 -0.1947
vn 0.4911 0.7947 -0.3568
vn 0.4089 0.6617 -0.6284
vn -0.1024 0.9435 -0.3151
vn -0.1876 0.7947 -0.5773
vn -0.4713 0.6617 -0.5831
vn -0.3313 0.9435 0.0000
vn -0.6071 0.7947 0.0000
vn -0.7002 0.6617 0.2680
vn -0.1024 0.9435 0.3151
vn -0.1876 0.7947 0.5773
vn 0.0385 0.6617 0.7488
vn 0.2680 0.9435 0.1947
vn 0.4911 0.7947 0.3568
vn 0.7240 0.6617 0.1947
vn 0.8897 0.3304 -0.3151
vn 0.7947 0.1876 -0.5774
vn 0.5746 0.3304 -0.7488
vn -0.0247 0.3304 -0.9435
vn -0.3035 0.1876 -0.9342
vn -0.5346 0.3304 -0.7779
vn -0.9050 0.3304 -0.2680
vn -0.9822 0.1876 0.0000
vn -0.9050 0.3304 0.2680
vn -0.5346 0.3304 0.7779
vn -0.3035 0.1876 0.9342
vn -0.0247 0.3304 0.9435
vn 0.5746 0.3304 0.7488
vn 0.7947 0.1876 0.5774
vn 0.8897 0.3304 0.3151
vn 0.3066 0.1256 -0.9435
vn 0.3035 -0.1876 -0.9342
vn 0.0248 -0.3304 -0.9435
vn -0.8026 0.1256 -0.5831
vn -0.7947 -0.1876 -0.5773
vn -0.8897 -0.3304 -0.3151
vn -0.8026 0.1256 0.5831
vn -0.7947 -0.1876 0.5774
vn -0.5746 -0.3304 0.7488
vn 0.3066 0.1256 0.9435
vn 0.3035 -0.1876 0.9342
vn 0.5346 -0.3304 0.7779
vn 0.9921 0.1256 0.0000
vn 0.9822 -0.1876 0.0000
vn 0.9050 -0.3304 -0.2680
vn 0.4713 -0.6617 -0.5831
vn 0.1876 -0.7947 -0.5773
vn -0.0385 -0.6617 -0.7488
vn -0.4089 -0.6617 -0.6284
vn -0.4911 -0.7947 -0.3568
vn -0.7240 -0.6617 -0.1947
vn -0.7240 -0.6617 0.1947
vn -0.4911 -0.7947 0.3568
vn -0.4089 -0.6617 0.6284
vn 0.7002 -0.6617 -0.2680
vn 0.6071 -0.7947 0.0000
vn 0.3313 -0.9435 0.0000
vn -0.0385 -0.6617 0.7488
vn 0.1876 -0.7947 0.5773
vn 0.4713 -0.6617 0.5831
usemtl None
s off
f 48//1 53//1 43//1
f 57//2 52//2 70//2
f 49//3 45//3 84//3
f 50//4 86//4 98//4
f 51//5 100//5 76//5
f 58//6 72//6 117//6
f 66//7 61//7 131//7
f 94//8 89//8 145//8
f 108//9 103//9 159//9
f 81//10 112//10 173//10
f 60//11 119//11 137//11
f 69//12 133//12 151//12
f 97//13 147//13 165//13
f 111//14 161//14 179//14
f 83//15 175//15 123//15
f 142//16 187//16 212//16
f 156//17 192//17 226//17
f 170//18 197//18 231//18
f 184//19 202//19 236//19
f 128//20 207//20 218//20
f 217//21 237//21 222//21
f 39//22 209//22 238//22
f 208//23 186//23 240//23
f 239//24 232//24 225//24
f 42//25 204//25 233//25
f 203//26 172//26 235//26
f 234//27 227//27 224//27
f 41//28 199//28 228//28
f 198//29 158//29 230//29
f 229//30 213//30 223//30
f 40//31 194//31 214//31
f 193//32 144//32 216//32
f 215//33 219//33 12//33
f 38//34 189//34 220//34
f 188//35 130//35 221//35
f 122//36 210//36 127//36
f 24//37 176//37 211//37
f 174//38 185//38 37//38
f 178//39 205//39 183//39
f 32//40 162//40 206//40
f 160//41 171//41 36//41
f 164//42 200//42 169//42
f 30//43 148//43 201//43
f 146//44 157//44 35//44
f 150//45 195//45 155//45
f 28//46 134//46 196//46
f 132//47 143//47 34//47
f 136//48 190//48 141//48
f 26//49 120//49 191//49
f 118//50 129//50 33//50
f 177//51 180//51 10//51
f 31//52 114//52 181//52
f 113//53 110//53 182//53
f 163//54 166//54 9//54
f 29//55 105//55 167//55
f 104//56 96//56 168//56
f 149//57 152//57 8//57
f 27//58 91//58 153//58
f 90//59 68//59 154//59
f 135//60 138//60 7//60
f 25//61 63//61 139//61
f 62//62 59//62 140//62
f 121//63 124//63 11//63
f 23//64 73//64 125//64
f 71//65 82//65 126//65
f 75//66 115//66 80//66
f 17//67 101//67 116//67
f 99//68 109//68 22//68
f 102//69 106//69 5//69
f 20//70 87//70 107//70
f 85//71 95//71 21//71
f 88//72 92//72 4//72
f 18//73 46//73 93//73
f 44//74 67//74 19//74
f 74//75 77//75 6//75
f 16//76 54//76 78//76
f 56//77 1//77 79//77
f 47//78 64//78 3//78
f 13//79 55//79 65//79
f 14//80 2//80 15//80
o Cube.001_Cube.002
v 0.807252 0.160778 -2.038152
v 0.807252 1.160778 -2.038152
v 0.807252 0.160778 -3.038152
v 0.807252 1.160778 -3.038152
v 1.807252 0.160778 -2.038152
v 1.807252 1.160778 -2.038152
v 1.807252 0.160778 -3.038152
v 1.807252 1.160778 -3.038152
vn -1.0000 0.0000 0.0000
vn 0.0000 0.0000 -1.0000
vn 1.0000 0.0000 0.0000
vn 0.0000 0.0000 1.0000
vn 0.0000 -1.0000 0.0000
vn 0.0000 1.0000 0.0000
usemtl None
s off
f 244//81 241//81 242//81
f 248//82 243//82 244//82
f 246//83 247//83 248//83
f 242//84 245//84 246//84
f 243//85 245//85 241//85
f 248//86 242//86 246//86
f 244//81 243//81 241//81
f 248//82 247//82 243//82
f 246//83 245//83 247//83
f 242//84 241//84 245//84
f 243//85 247//85 245//85
f 248//86 244//86 242//86
o Plane
v -1000.000000 0.000000 1000.000000
v 1000.000000 0.000000 1000.000000
v -1000.000000 0.000000 -1000.000000
v 1000.000000 0.000000 -1000.000000
vn 0.0000 1.0000 0.0000
usemtl Material.002
s off
f 250//87 251//87 249//87
f 250//87 252//87 251//87
o Cube
v 0.050000 1.950000 0.217255
v 0.050000 1.950000 0.317255
v -0.050000 1.950000 0.317255
v -0.050000 1.950000 0.217255
v 0.050000 2.050000 0.217255
v 0.050000 2.050000 0.317255
v -0.050000 2.050000 0.317255
v -0.050000 2.050000 0.217255
vn 0.0000 -1.0000 0.0000
vn 0.0000 1.0000 0.0000
vn 1.0000 -0.0000 0.0000
vn 0.0000 -0.0000 1.0000
vn -1.0000 -0.0000 -0.0000
vn 0.0000 0.0000 -1.0000
usemtl Material
s off
f 254//88 256//88 253//88
f 260//89 258//89 257//89
f 257//90 254//90 253//90
f 258//91 255//91 254//91
f 255//92 260//92 256//92
f 253//93 260//93 257//93
f 254//88 255//88 256//88
f 260//89 259//89 258//89
f 257//90 258//90 254//90
f 258//91 259//91 255//91
f 255//92 259//92 260//92
f 253//93 256//93 260//93
o Cube.002_Cube.003
v -1.704971 0.160778 -1.922836
v -1.704971 1.160778 -1.922836
v -1.704971 0.160778 -2.922836
v -1.704971 1.160778 -2.922836
v -0.704971 0.160778 -1.922836
v -0.704971 1.160778 -1.922836
v -0.704971 0.160778 -2.922836
v -0.704971 1.160778 -2.922836
v -1.704971 0.160778 -1.922836
v -1.704971 0.160778 -1.922836
v -1.704971 1.160778 -1.922836
v -1.704971 1.160778 -1.922836
v -1.704971 1.160778 -2.922836
v -1.704971 1.160778 -2.922836
v -1.704971 0.160778 -2.922836
v -1.704971 0.160778 -2.922836
v -0.704971 1.160778 -2.922836
v -0.704971 1.160778 -2.922836
v -0.704971 0.160778 -2.922836
v -0.704971 0.160778 -2.922836
v -0.704971 1.160778 -1.922836
v -0.704971 1.160778 -1.922836
v -0.704971 0.160778 -1.922836
v -0.704971 0.160778 -1.922836
vn -1.0000 0.0000 0.0000
vn 0.0000 0.0000 -1.0000
vn 1.0000 0.0000 0.0000
vn 0.0000 0.0000 1.0000
vn 0.0000 -1.0000 0.0000
vn 0.0000 1.0000 0.0000
usemtl None
s off
f 273//94 269//94 271//94
f 277//95 276//95 274//95
f 281//96 280//96 278//96
f 272//97 284//97 282//97
f 263//98 265//98 261//98
f 268//99 262//99 266//99
f 273//94 275//94 269//94
f 277//95 279//95 276//95
f 281//96 283//96 280//96
f 272//97 270//97 284//97
f 263//98 267//98 265//98
f 268//99 264//99 262//99
o Icosphere.001
v 0.584124 0.421204 -4.852283
v 0.888039 0.653371 -4.631478
v 0.468041 0.653371 -4.495010
v 0.208465 0.653373 -4.852283
v 0.468041 0.653371 -5.209555
v 0.888039 0.653371 -5.073087
v 0.700207 1.029036 -4.495010
v 0.280209 1.029036 -4.631478
v 0.280209 1.029036 -5.073087
v 0.700207 1.029036 -5.209555
v 0.959783 1.029034 -4.852283
v 0.584124 1.261204 -4.852283
v 0.515893 0.483929 -4.642284
v 0.762760 0.483929 -4.722498
v 0.694529 0.620394 -4.512497
v 0.941396 0.620395 -4.852283
v 0.762760 0.483929 -4.982067
v 0.363318 0.483930 -4.852283
v 0.295085 0.620394 -4.642284
v 0.515893 0.483929 -5.062281
v 0.295085 0.620394 -5.062281
v 0.694529 0.620394 -5.192068
v 0.983568 0.841204 -4.722497
v 0.983568 0.841204 -4.982068
v 0.584124 0.841204 -4.432282
v 0.830994 0.841204 -4.512496
v 0.184680 0.841204 -4.722497
v 0.337254 0.841204 -4.512496
v 0.337254 0.841204 -5.192070
v 0.184680 0.841204 -4.982068
v 0.830994 0.841204 -5.192070
v 0.584124 0.841204 -5.272283
v 0.873164 1.062013 -4.642284
v 0.473719 1.062013 -4.512497
v 0.226852 1.062013 -4.852283
v 0.473719 1.062013 -5.192068
v 0.873164 1.062013 -5.062281
v 0.652355 1.198478 -4.642284
v 0.804931 1.198477 -4.852283
v 0.405489 1.198478 -4.722498
v 0.405489 1.198478 -4.982067
v 0.652355 1.198478 -5.062281
vn 0.1024 -0.9435 0.3151
vn 0.7002 -0.6617 0.2680
vn -0.2680 -0.9435 0.1947
vn -0.2680 -0.9435 -0.1947
vn 0.1024 -0.9435 -0.3151
vn 0.9050 -0.3304 0.2680
vn 0.0247 -0.3304 0.9435
vn -0.8897 -0.3304 0.3151
vn -0.5746 -0.3304 -0.7488
vn 0.5346 -0.3304 -0.7779
vn 0.8026 -0.1256 0.5831
vn -0.3066 -0.1256 0.9435
vn -0.9921 -0.1256 0.0000
vn -0.3066 -0.1256 -0.9435
vn 0.8026 -0.1256 -0.5831
vn 0.4089 0.6617 0.6284
vn -0.4713 0.6617 0.5831
vn -0.7002 0.6617 -0.2680
vn 0.0385 0.6617 -0.7488
vn 0.7240 0.6617 -0.1947
vn 0.2680 0.9435 -0.1947
vn 0.4911 0.7947 -0.3568
vn 0.4089 0.6617 -0.6284
vn -0.1024 0.9435 -0.3151
vn -0.1876 0.7947 -0.5773
vn -0.4713 0.6617 -0.5831
vn -0.3313 0.9435 0.0000
vn -0.6071 0.7947 0.0000
vn -0.7002 0.6617 0.2680
vn -0.1024 0.9435 0.3151
vn -0.1876 0.7947 0.5773
vn 0.0385 0.6617 0.7488
vn 0.2680 0.9435 0.1947
vn 0.4911 0.7947 0.3568
vn 0.7240 0.6617 0.1947
vn 0.8897 0.3304 -0.3151
vn 0.7947 0.1876 -0.5774
vn 0.5746 0.3304 -0.7488
vn -0.0247 0.3304 -0.9435
vn -0.3035 0.1876 -0.9342
vn -0.5346 0.3304 -0.7779
vn -0.9050 0.3304 -0.2680
vn -0.9822 0.1876 0.0000
vn -0.9050 0.3304 0.2680
vn -0.5346 0.3304 0.7779
vn -0.3035 0.1876 0.9342
vn -0.0247 0.3304 0.9435
vn 0.5746 0.3304 0.7488
vn 0.7947 0.1876 0.5774
vn 0.8897 0.3304 0.3151
vn 0.3066 0.1256 -0.9435
vn 0.3035 -0.1876 -0.9342
vn 0.0248 -0.3304 -0.9435
vn -0.8026 0.1256 -0.5831
vn -0.7947 -0.1876 -0.5773
vn -0.8897 -0.3304 -0.3151
vn -0.8026 0.1256 0.5831
vn -0.7947 -0.1876 0.5774
vn -0.5746 -0.3304 0.7488
vn 0.3066 0.1256 0.9435
vn 0.3035 -0.1876 0.9342
vn 0.5346 -0.3304 0.7779
vn 0.9921 0.1256 0.0000
vn 0.9822 -0.1876 0.0000
vn 0.9050 -0.3304 -0.2680
vn 0.4713 -0.6617 -0.5831
vn 0.1876 -0.7947 -0.5773
vn -0.0385 -0.6617 -0.7488
vn -0.4089 -0.6617 -0.6284
vn -0.4911 -0.7947 -0.3568
vn -0.7240 -0.6617 -0.1947
vn -0.7240 -0.6617 0.1947
vn -0.4911 -0.7947 0.3568
vn -0.4089 -0.6617 0.6284
vn 0.7002 -0.6617 -0.2680
vn 0.6071 -0.7947 0.0000
vn 0.3313 -0.9435 0.0000
vn -0.0385 -0.6617 0.7488
vn 0.1876 -0.7947 0.5773
vn 0.4713 -0.6617 0.5831
usemtl None
s off
f 285//100 298//100 297//100
f 286//101 298//101 300//101
f 285//102 297//102 302//102
f 285//103 302//103 304//103
f 285//104 304//104 301//104
f 286//105 300//105 307//105
f 287//106 299//106 309//106
f 288//107 303//107 311//107
f 289//108 305//108 313//108
f 290//109 306//109 315//109
f 286//110 307//110 310//110
f 287//111 309//111 312//111
f 288//112 311//112 314//112
f 289//113 313//113 316//113
f 290//114 315//114 308//114
f 291//115 317//115 322//115
f 292//116 318//116 324//116
f 293//117 319//117 325//117
f 294//118 320//118 326//118
f 295//119 321//119 323//119
f 323//120 326//120 296//120
f 323//121 321//121 326//121
f 321//122 294//122 326//122
f 326//123 325//123 296//123
f 326//124 320//124 325//124
f 320//125 293//125 325//125
f 325//126 324//126 296//126
f 325//127 319//127 324//127
f 319//128 292//128 324//128
f 324//129 322//129 296//129
f 324//130 318//130 322//130
f 318//131 291//131 322//131
f 322//132 323//132 296//132
f 322//133 317//133 323//133
f 317//134 295//134 323//134
f 308//135 321//135 295//135
f 308//136 315//136 321//136
f 315//137 294//137 321//137
f 316//138 320//138 294//138
f 316//139 313//139 320//139
f 313//140 293//140 320//140
f 314//141 319//141 293//141
f 314//142 311//142 319//142
f 311//143 292//143 319//143
f 312//144 318//144 292//144
f 312//145 309//145 318//145
f 309//146 291//146 318//146
f 310//147 317//147 291//147
f 310//148 307//148 317//148
f 307//149 295//149 317//149
f 315//150 316//150 294//150
f 315//151 306//151 316//151
f 306//152 289//152 316//152
f 313//153 314//153 293//153
f 313//154 305//154 314//154
f 305//155 288//155 314//155
f 311//156 312//156 292//156
f 311//157 303//157 312//157
f 303//158 287//158 312//158
f 309//159 310//159 291//159
f 309//160 299//160 310//160
f 299//161 286//161 310//161
f 307//162 308//162 295//162
f 307//163 300//163 308//163
f 300//164 290//164 308//164
f 301//165 306//165 290//165
f 301//166 304//166 306//166
f 304//167 289//167 306//167
f 304//168 305//168 289//168
f 304//169 302//169 305//169
f 302//170 288//170 305//170
f 302//171 303//171 288//171
f 302//172 297//172 303//172
f 297//173 287//173 303//173
f 300//174 301//174 290//174
f 300//175 298//175 301//175
f 298//176 285//176 301//176
f 297//177 299//177 287//177
f 297//178 298//178 299//178
f 298//179 286//179 299//179
