# Blender v2.77 (sub 0) OBJ File: ''
# www.blender.org
mtllib cube.mtl
o Plane.001
v -2.978848 1.656541 -6.611579
v -1.491528 1.796054 -7.941397
v -1.964543 2.834876 -5.353519
v -0.477223 2.974389 -6.683337
vn 0.4356 -0.8050 0.4028
usemtl Material.008
s off
f 2//1 3//1 1//1
f 2//1 4//1 3//1
o Cube.001_Cube.007
v 1.410934 1.368418 -6.345274
v 0.324581 1.681279 -4.695438
v 1.295557 -0.053819 -6.151544
v 0.209204 0.259043 -4.501708
v -0.260641 1.354455 -7.443293
v -1.346993 1.667317 -5.793457
v -0.376018 -0.067781 -7.249562
v -1.462370 0.245080 -5.599727
v 1.410934 1.368418 -6.345274
v 1.410934 1.368418 -6.345274
v 0.324581 1.681279 -4.695438
v 0.324581 1.681279 -4.695438
v 0.209204 0.259043 -4.501708
v 0.209204 0.259043 -4.501708
v 1.295557 -0.053819 -6.151544
v 1.295557 -0.053819 -6.151544
v -1.462370 0.245080 -5.599727
v -1.462370 0.245080 -5.599727
v -0.376018 -0.067781 -7.249562
v -0.376018 -0.067781 -7.249562
v -1.346993 1.667317 -5.793457
v -1.346993 1.667317 -5.793457
v -0.260641 1.354455 -7.443293
v -0.260641 1.354455 -7.443293
vn 0.8358 0.0070 0.5490
vn -0.0801 -0.9877 0.1345
vn -0.8358 -0.0070 -0.5490
vn 0.0801 0.9877 -0.1345
vn 0.5432 -0.1564 -0.8249
vn -0.5432 0.1564 0.8249
usemtl Material.006
s off
f 17//2 13//2 15//2
f 21//3 19//3 18//3
f 25//4 23//4 22//4
f 16//5 27//5 26//5
f 20//6 9//6 14//6
f 12//7 6//7 10//7
f 17//2 7//2 13//2
f 21//3 24//3 19//3
f 25//4 28//4 23//4
f 16//5 5//5 27//5
f 20//6 11//6 9//6
f 12//7 8//7 6//7
o Cube_Cube.006
v -1.625302 0.194386 -3.912217
v -1.625302 1.194386 -3.912217
v -1.625302 0.194386 -4.912217
v -1.625302 1.194386 -4.912217
v -0.625302 0.194386 -3.912217
v -0.625302 1.194386 -3.912217
v -0.625302 0.194386 -4.912217
v -0.625302 1.194386 -4.912217
v -1.625302 0.194386 -3.912217
v -1.625302 0.194386 -3.912217
v -1.625302 1.194386 -3.912217
v -1.625302 1.194386 -3.912217
v -1.625302 1.194386 -4.912217
v -1.625302 1.194386 -4.912217
v -1.625302 0.194386 -4.912217
v -1.625302 0.194386 -4.912217
v -0.625302 1.194386 -4.912217
v -0.625302 1.194386 -4.912217
v -0.625302 0.194386 -4.912217
v -0.625302 0.194386 -4.912217
v -0.625302 1.194386 -3.912217
v -0.625302 1.194386 -3.912217
v -0.625302 0.194386 -3.912217
v -0.625302 0.194386 -3.912217
vn -1.0000 0.0000 0.0000
vn 0.0000 0.0000 -1.0000
vn 1.0000 0.0000 0.0000
vn 0.0000 0.0000 1.0000
vn 0.0000 -1.0000 0.0000
vn 0.0000 1.0000 0.0000
usemtl Material.005
s off
f 41//8 37//8 39//8
f 45//9 44//9 42//9
f 49//10 48//10 46//10
f 40//11 52//11 50//11
f 31//12 33//12 29//12
f 36//13 30//13 34//13
f 41//8 43//8 37//8
f 45//9 47//9 44//9
f 49//10 51//10 48//10
f 40//11 38//11 52//11
f 31//12 35//12 33//12
f 36//13 32//13 30//13
o Plane
v 1000.000000 -0.000163 1000.000000
v -1000.000000 0.000163 -1000.000000
v -1000.000000 -0.000163 1000.000000
v 1000.000000 0.000163 -1000.000000
vn 0.0000 1.0000 0.0000
usemtl Material.002
s 1
f 53//14 54//14 55//14
f 53//14 56//14 54//14
